<svg width="1200" height="720" viewBox="0 0 1200 720" fill="none" xmlns="http://www.w3.org/2000/svg">
  <rect width="1200" height="720" rx="36" fill="#0F172A"/>
  <rect x="32" y="32" width="1136" height="656" rx="28" fill="url(#bg)"/>
  <rect x="72" y="82" width="220" height="556" rx="22" fill="#0B1220" opacity="0.92"/>
  <rect x="330" y="82" width="798" height="78" rx="20" fill="#FFFFFF" opacity="0.92"/>
  <rect x="330" y="184" width="510" height="188" rx="24" fill="#2563EB"/>
  <rect x="864" y="184" width="264" height="188" rx="24" fill="#14B8A6"/>
  <rect x="330" y="396" width="382" height="210" rx="24" fill="#FFFFFF" opacity="0.94"/>
  <rect x="736" y="396" width="392" height="210" rx="24" fill="#FFFFFF" opacity="0.94"/>
  <rect x="102" y="120" width="118" height="18" rx="9" fill="#38BDF8"/>
  <rect x="102" y="164" width="144" height="14" rx="7" fill="#334155"/>
  <rect x="102" y="198" width="132" height="14" rx="7" fill="#334155"/>
  <rect x="102" y="232" width="156" height="14" rx="7" fill="#334155"/>
  <rect x="102" y="322" width="160" height="88" rx="18" fill="#111827"/>
  <rect x="102" y="438" width="160" height="88" rx="18" fill="#111827"/>
  <rect x="102" y="554" width="160" height="44" rx="16" fill="#2563EB"/>
  <text x="362" y="128" fill="#0F172A" font-family="Arial, sans-serif" font-size="30" font-weight="700">Klinik Dentamedika</text>
  <text x="362" y="234" fill="white" font-family="Arial, sans-serif" font-size="20">Dashboard pasien, billing, master obat, dan master tindakan</text>
  <text x="362" y="272" fill="white" font-family="Arial, sans-serif" font-size="52" font-weight="700">Sistem Klinik Live</text>
  <text x="362" y="318" fill="#DBEAFE" font-family="Arial, sans-serif" font-size="24">Optimized for real operational workflow</text>
  <text x="892" y="242" fill="white" font-family="Arial, sans-serif" font-size="18">Master Tindakan</text>
  <text x="892" y="286" fill="white" font-family="Arial, sans-serif" font-size="56" font-weight="700">90</text>
  <text x="892" y="326" fill="#CCFBF1" font-family="Arial, sans-serif" font-size="22">Live seeded items</text>
  <text x="360" y="446" fill="#0F172A" font-family="Arial, sans-serif" font-size="24" font-weight="700">Core Features</text>
  <text x="360" y="490" fill="#475569" font-family="Arial, sans-serif" font-size="20">• Patient management</text>
  <text x="360" y="526" fill="#475569" font-family="Arial, sans-serif" font-size="20">• Queue & encounter flow</text>
  <text x="360" y="562" fill="#475569" font-family="Arial, sans-serif" font-size="20">• Medical record & billing</text>
  <text x="360" y="598" fill="#475569" font-family="Arial, sans-serif" font-size="20">• Medicines & treatments master data</text>
  <text x="766" y="446" fill="#0F172A" font-family="Arial, sans-serif" font-size="24" font-weight="700">Tech Stack</text>
  <text x="766" y="490" fill="#475569" font-family="Arial, sans-serif" font-size="20">PHP + MySQL</text>
  <text x="766" y="526" fill="#475569" font-family="Arial, sans-serif" font-size="20">Bootstrap UI</text>
  <text x="766" y="562" fill="#475569" font-family="Arial, sans-serif" font-size="20">Live deployment workflow</text>
  <text x="766" y="598" fill="#475569" font-family="Arial, sans-serif" font-size="20">Fast operational iteration</text>
  <defs>
    <linearGradient id="bg" x1="32" y1="32" x2="1168" y2="688" gradientUnits="userSpaceOnUse">
      <stop stop-color="#E0F2FE"/>
      <stop offset="0.5" stop-color="#EFF6FF"/>
      <stop offset="1" stop-color="#ECFDF5"/>
    </linearGradient>
  </defs>
</svg>
